# xmcd
#
# Track frame offsets:
#       150
#       18410
#       35877
#       55422
#       73280
#       93732
#       110870
#       130575
#       148245
#       166182
#       180962
#       198475
#       217037
#
# Disc length: 3089 seconds
#
# Revision: 1
# Processed by: cddbd v1.5PL3 Copyright (c) Steve Scherf et al.
# Submitted via: MusiCat 1.1
#
DISCID=cc0c0f0d
DTITLE=Chris Durán - Why
DYEAR=1900
DGENRE=
TTITLE0=Why
TTITLE1=Laberinto
TTITLE2=Dame amor
TTITLE3=Te voy a hacer mujer
TTITLE4=Donde vas
TTITLE5=Como estas
TTITLE6=Consuelo
TTITLE7=Perfume de mujer
TTITLE8=A donde vay
TTITLE9=Dime donde vay sin ti
TTITLE10=Esmeralda
TTITLE11=Loco por ti
TTITLE12=Por que
EXTD=\n\n
EXTT0=
EXTT1=
EXTT2=
EXTT3=
EXTT4=
EXTT5=
EXTT6=
EXTT7=
EXTT8=
EXTT9=
EXTT10=
EXTT11=
EXTT12=
PLAYORDER=
